<?xml version="1.0" encoding="UTF-8"?>
<svg xmlns="http://www.w3.org/2000/svg" xmlns:xlink="http://www.w3.org/1999/xlink" width="48pt" height="48pt" viewBox="0 0 48 48" version="1.1">
<g id="surface22289">
<path style=" stroke:none;fill-rule:nonzero;fill:rgb(100%,100%,100%);fill-opacity:1;" d="M 38.101562 31.199219 L 19.398438 24 L 38.101562 16.800781 C 39.601562 16.199219 40.398438 14.5 39.800781 12.898438 C 39.199219 11.398438 37.5 10.601562 35.898438 11.199219 L 9.898438 21.199219 C 8.800781 21.601562 8 22.800781 8 24 C 8 25.199219 8.800781 26.398438 9.898438 26.800781 L 35.898438 36.800781 C 36.300781 36.898438 36.601562 37 37 37 C 38.199219 37 39.300781 36.300781 39.800781 35.101562 C 40.398438 33.5 39.601562 31.800781 38.101562 31.199219 Z M 38.101562 31.199219 "/>
<path style=" stroke:none;fill-rule:nonzero;fill:rgb(100%,100%,100%);fill-opacity:1;" d="M 11 17 C 7.132812 17 4 20.132812 4 24 C 4 27.867188 7.132812 31 11 31 C 14.867188 31 18 27.867188 18 24 C 18 20.132812 14.867188 17 11 17 Z M 37 7 C 33.132812 7 30 10.132812 30 14 C 30 17.867188 33.132812 21 37 21 C 40.867188 21 44 17.867188 44 14 C 44 10.132812 40.867188 7 37 7 Z M 37 27 C 33.132812 27 30 30.132812 30 34 C 30 37.867188 33.132812 41 37 41 C 40.867188 41 44 37.867188 44 34 C 44 30.132812 40.867188 27 37 27 Z M 37 27 "/>
</g>
</svg>
